<?xml version="1.0" encoding="utf-8"?>
<!-- Generator: Adobe Illustrator 19.0.0, SVG Export Plug-In . SVG Version: 6.00 Build 0)  -->
<svg version="1.1" id="Layer_1" xmlns="http://www.w3.org/2000/svg" xmlns:xlink="http://www.w3.org/1999/xlink" x="0px" y="0px"
	 viewBox="0 0 26.9 41.5" style="enable-background:new 0 0 26.9 41.5;" xml:space="preserve">
<style type="text/css">
	.st0{fill:#FFFFFF;}
</style>
<g id="XMLID_17_">
	<path id="XMLID_27_" class="st0" d="M12.2,10.2c0,1.1-0.9,2-2,2H2c-1.1,0-2-0.9-2-2V2c0-1.1,0.9-2,2-2h8.2c1.1,0,2,0.9,2,2V10.2z"
		/>
</g>
<g id="XMLID_14_">
	<path id="XMLID_25_" class="st0" d="M26.9,10.2c0,1.1-0.9,2-2,2h-8.2c-1.1,0-2-0.9-2-2V2c0-1.1,0.9-2,2-2h8.2c1.1,0,2,0.9,2,2V10.2
		z"/>
</g>
<g id="XMLID_11_">
	<path id="XMLID_23_" class="st0" d="M12.2,24.7c0,1.1-0.9,2-2,2H2c-1.1,0-2-0.9-2-2v-8.2c0-1.1,0.9-2,2-2h8.2c1.1,0,2,0.9,2,2V24.7
		z"/>
</g>
<g id="XMLID_8_">
	<path id="XMLID_21_" class="st0" d="M26.9,24.7c0,1.1-0.9,2-2,2h-8.2c-1.1,0-2-0.9-2-2v-8.2c0-1.1,0.9-2,2-2h8.2c1.1,0,2,0.9,2,2
		V24.7z"/>
</g>
<g id="XMLID_5_">
	<path id="XMLID_19_" class="st0" d="M12.2,39.5c0,1.1-0.9,2-2,2H2c-1.1,0-2-0.9-2-2v-8.2c0-1.1,0.9-2,2-2h8.2c1.1,0,2,0.9,2,2V39.5
		z"/>
</g>
<g id="XMLID_2_">
	<path id="XMLID_16_" class="st0" d="M26.9,39.5c0,1.1-0.9,2-2,2h-8.2c-1.1,0-2-0.9-2-2v-8.2c0-1.1,0.9-2,2-2h8.2c1.1,0,2,0.9,2,2
		V39.5z"/>
</g>
</svg>
